<?xml version="1.0" standalone="no"?>
<!DOCTYPE svg PUBLIC "-//W3C//DTD SVG 20010904//EN"
 "http://www.w3.org/TR/2001/REC-SVG-20010904/DTD/svg10.dtd">
<svg version="1.0" xmlns="http://www.w3.org/2000/svg"
 width="3840.000000pt" height="2160.000000pt" viewBox="0 0 3840.000000 2160.000000"
 preserveAspectRatio="xMidYMid meet">

<g transform="translate(0.000000,2160.000000) scale(0.100000,-0.100000)"
fill="#000000" stroke="none">
<path d="M23103 14407 c-56 -28 -36 -131 56 -280 22 -37 41 -70 41 -73 0 -3
29 -51 63 -107 88 -141 176 -285 197 -321 10 -17 91 -152 180 -301 90 -148
171 -283 180 -300 10 -16 68 -113 130 -215 62 -102 134 -221 160 -265 26 -44
75 -127 110 -185 34 -58 70 -118 80 -135 9 -16 36 -61 60 -100 24 -38 51 -83
60 -100 10 -16 95 -158 189 -314 94 -156 171 -285 171 -287 0 -1 27 -46 60
-99 33 -53 60 -98 60 -100 0 -2 27 -47 60 -100 33 -53 60 -98 60 -100 0 -2 23
-41 52 -87 109 -176 110 -179 118 -312 4 -67 8 -514 7 -994 0 -552 4 -877 10
-883 18 -18 236 -29 588 -29 350 0 526 10 552 31 11 9 13 168 13 893 0 484 5
933 9 997 12 148 3 129 281 574 62 99 120 194 130 210 10 17 33 57 52 90 19
33 65 110 103 170 74 119 335 551 537 890 125 208 723 1201 886 1470 116 191
134 232 130 296 -3 48 -5 53 -33 63 -18 6 -231 10 -555 10 -601 1 -585 3 -653
-81 -44 -55 -131 -201 -335 -563 -35 -63 -84 -147 -107 -185 -24 -39 -62 -108
-85 -154 -23 -46 -66 -123 -95 -170 -29 -47 -77 -129 -106 -181 -30 -52 -60
-107 -69 -121 -8 -14 -37 -66 -64 -115 -27 -49 -104 -186 -171 -304 -68 -118
-142 -251 -165 -295 -24 -44 -67 -122 -97 -173 -29 -52 -65 -120 -81 -153 -15
-32 -32 -59 -38 -59 -6 0 -24 26 -41 58 -16 31 -49 93 -73 137 -24 44 -61 113
-82 154 -21 41 -42 79 -47 85 -4 6 -22 36 -38 66 -17 30 -40 73 -53 95 -13 22
-36 65 -53 95 -38 69 -131 231 -167 290 -15 25 -39 65 -52 90 -23 42 -37 66
-87 153 -60 104 -82 144 -91 157 -5 8 -19 31 -30 50 -11 19 -25 42 -30 50 -5
8 -33 56 -61 105 -76 133 -82 143 -138 233 -28 46 -51 85 -51 87 0 2 -27 47
-60 100 -33 53 -60 98 -60 100 0 2 -26 47 -90 155 -114 193 -170 259 -237 282
-51 17 -1157 22 -1190 5z"/>
<path d="M4665 14049 c-33 -5 -73 -13 -89 -19 -16 -5 -47 -10 -69 -10 -22 0
-56 -4 -76 -10 -20 -5 -79 -19 -131 -31 -494 -111 -966 -358 -1329 -694 -66
-61 -226 -239 -291 -325 -217 -285 -388 -619 -488 -955 -36 -121 -36 -118 -82
-376 -6 -30 -10 -82 -10 -115 0 -32 -9 -102 -20 -154 -26 -123 -27 -391 -4
-490 9 -36 20 -105 24 -155 7 -81 14 -130 35 -245 41 -230 132 -508 232 -713
24 -48 43 -90 43 -93 0 -14 119 -218 184 -314 312 -468 728 -805 1252 -1015
150 -61 186 -72 354 -117 156 -41 170 -44 365 -69 150 -19 200 -21 425 -15
278 6 428 22 590 62 469 115 831 315 1156 639 212 212 346 399 477 665 50 102
51 107 52 196 0 69 -4 94 -16 106 -24 24 -119 69 -269 128 -74 29 -148 58
-165 65 -119 52 -293 105 -343 105 -65 0 -97 -23 -170 -120 -197 -261 -598
-550 -894 -643 -223 -71 -263 -77 -495 -77 -230 0 -268 5 -508 73 -309 87
-651 343 -828 620 -40 62 -145 278 -175 357 -11 30 -28 75 -37 100 -26 68 -70
281 -86 410 -40 328 -10 677 82 955 80 240 243 493 435 675 138 130 378 273
570 339 261 90 429 117 672 108 127 -4 166 -10 287 -41 221 -58 355 -118 510
-227 101 -72 290 -257 390 -381 154 -192 173 -205 309 -196 76 5 97 14 676
301 l105 52 -1 55 c0 30 -5 73 -9 95 -7 37 -71 178 -113 250 -42 74 -180 274
-202 295 -3 3 -33 39 -67 80 -77 94 -256 270 -348 342 -76 59 -191 137 -270
183 -27 16 -63 37 -80 47 -173 101 -475 210 -685 247 -69 12 -170 31 -225 41
-85 17 -140 20 -345 19 -135 -1 -272 -5 -305 -10z"/>
<path d="M9510 13120 c-133 -12 -357 -59 -425 -89 -11 -5 -66 -28 -123 -51
-252 -104 -468 -277 -636 -509 -141 -196 -256 -440 -242 -516 11 -57 52 -80
221 -123 66 -17 232 -63 369 -101 137 -39 261 -71 275 -71 55 1 84 30 151 155
83 155 136 212 260 285 100 60 167 77 337 90 185 15 344 3 449 -34 180 -61
326 -179 398 -321 36 -71 46 -144 46 -336 l0 -156 -78 -6 c-43 -3 -217 -11
-387 -17 -414 -15 -675 -28 -760 -40 -38 -6 -115 -14 -170 -19 -278 -26 -431
-63 -624 -152 -185 -86 -371 -239 -473 -388 -64 -94 -152 -276 -173 -361 -56
-217 -58 -650 -5 -835 81 -277 260 -520 495 -674 137 -89 352 -172 550 -213
96 -20 138 -23 330 -22 194 1 236 4 355 27 181 35 326 84 495 168 156 77 273
156 396 271 45 42 86 75 91 72 4 -3 8 -49 9 -102 0 -148 20 -281 44 -298 15
-12 102 -14 501 -14 420 0 485 2 498 15 13 14 15 175 14 1453 0 1642 2 1588
-81 1867 -41 136 -113 283 -195 400 -75 106 -258 289 -352 351 -81 55 -244
137 -353 179 -127 49 -227 74 -412 106 -82 14 -667 20 -795 9z m1007 -2528
c80 -3 93 -6 98 -23 11 -33 -36 -393 -61 -466 -45 -133 -125 -253 -251 -376
-95 -93 -138 -124 -240 -175 -89 -45 -144 -62 -292 -91 -89 -18 -113 -20 -170
-10 -247 41 -365 93 -486 214 -84 84 -116 136 -140 230 -28 104 -11 244 40
344 97 191 330 328 600 350 99 8 726 11 902 3z"/>
<path d="M14420 13124 c-229 -25 -437 -96 -640 -216 -127 -76 -243 -150 -289
-185 -24 -18 -48 -33 -52 -33 -5 0 -9 67 -9 148 0 104 -4 153 -12 164 -34 41
-63 43 -558 43 -524 0 -530 -1 -546 -58 -5 -19 -7 -894 -4 -2112 4 -1663 8
-2084 18 -2102 7 -13 25 -26 40 -30 34 -10 968 -10 1002 -1 58 17 55 -67 61
1408 5 1346 5 1355 26 1425 50 163 100 252 198 350 60 60 93 83 177 124 174
86 380 127 510 102 85 -17 231 -66 299 -102 155 -83 285 -261 338 -464 47
-181 47 -186 54 -2023 2 -774 3 -794 22 -808 27 -20 1097 -16 1117 4 10 10 14
267 19 1315 4 953 9 1322 18 1376 12 72 54 200 87 264 69 132 234 290 371 353
221 103 469 100 688 -8 95 -47 122 -66 198 -144 72 -73 135 -200 172 -344 15
-58 32 -121 38 -140 8 -25 12 -416 14 -1359 1 -728 5 -1326 8 -1330 4 -3 246
-6 539 -6 491 0 534 1 559 18 15 9 30 30 34 45 14 48 10 2879 -4 2942 -7 30
-17 89 -24 130 -35 230 -148 490 -293 678 -73 95 -246 259 -341 324 -133 90
-297 162 -470 206 -181 46 -192 47 -485 47 -193 -1 -303 -5 -340 -14 -157 -36
-227 -53 -245 -61 -11 -5 -60 -25 -109 -45 -202 -82 -310 -160 -524 -379 -79
-80 -144 -146 -146 -146 -2 0 -24 30 -49 68 -58 84 -99 129 -200 214 -213 180
-411 278 -692 344 -58 14 -492 27 -575 18z"/>
<path d="M21230 13123 c-203 -13 -522 -107 -742 -218 -279 -141 -502 -336
-715 -627 -169 -231 -306 -557 -378 -901 -48 -227 -48 -764 0 -1027 6 -34 16
-78 37 -170 64 -277 194 -552 352 -745 229 -278 569 -537 870 -661 507 -211
1195 -227 1721 -40 308 108 496 230 738 477 147 149 220 247 292 388 82 160
62 196 -137 261 -73 24 -207 68 -298 98 -208 69 -260 81 -337 82 -60 0 -62 -1
-105 -47 -207 -227 -340 -312 -618 -394 -68 -20 -97 -22 -300 -22 -231 0 -250
2 -385 48 -73 25 -212 93 -276 136 -77 51 -222 199 -279 284 -84 126 -164 317
-177 424 l-5 48 813 6 c448 3 947 2 1109 -2 461 -12 1124 -13 1153 -2 60 23
79 119 80 400 0 119 -5 245 -11 281 -30 170 -75 408 -82 435 -41 142 -59 194
-97 285 -25 58 -65 142 -89 188 -60 112 -66 123 -86 146 -10 11 -18 23 -18 28
0 19 -158 214 -242 299 -136 137 -389 309 -548 373 -97 39 -268 97 -330 112
-36 8 -74 17 -85 20 -26 7 -142 23 -235 33 -71 8 -493 11 -590 4z m546 -962
c123 -31 245 -87 354 -161 72 -49 202 -180 252 -254 44 -64 118 -214 118 -239
0 -9 4 -18 8 -21 11 -7 45 -151 40 -167 -5 -16 -2045 -20 -2058 -4 -17 21 104
292 180 405 162 238 460 425 735 461 99 13 281 3 371 -20z"/>
<path d="M29310 13120 c-359 -31 -673 -149 -931 -350 -66 -51 -227 -210 -259
-255 -75 -105 -174 -270 -215 -358 -43 -90 -47 -104 -48 -182 -2 -105 9 -119
114 -146 41 -10 106 -27 144 -38 39 -10 129 -35 200 -55 72 -20 159 -45 195
-56 36 -11 104 -23 152 -26 83 -7 87 -6 110 18 13 14 52 79 88 144 104 189
212 281 405 346 66 22 85 23 320 23 249 0 250 0 325 -28 152 -56 276 -142 349
-241 67 -90 82 -129 106 -261 16 -83 20 -282 7 -301 -4 -6 -23 -14 -42 -17
-40 -7 -424 -23 -765 -32 -126 -3 -257 -10 -290 -15 -33 -5 -106 -13 -162 -19
-320 -34 -378 -42 -518 -77 -160 -40 -355 -129 -475 -219 -234 -174 -398 -440
-455 -738 -9 -45 -22 -113 -30 -151 -17 -77 -20 -236 -6 -299 5 -23 14 -76 21
-117 27 -184 98 -375 191 -511 66 -98 211 -236 324 -310 239 -157 540 -239
874 -239 341 0 659 75 920 217 109 59 261 167 343 242 42 39 81 71 86 71 12 0
19 -64 28 -252 5 -97 10 -130 22 -140 12 -10 121 -13 514 -13 483 0 500 1 514
19 12 17 14 229 14 1439 0 1386 0 1422 -21 1555 -30 201 -56 303 -100 399 -10
24 -19 48 -19 54 0 14 -83 169 -129 239 -70 110 -153 204 -246 280 -263 214
-479 308 -900 390 -70 14 -627 21 -755 10z m1048 -2531 c21 -8 22 -14 22 -111
-1 -318 -76 -515 -276 -727 -165 -175 -318 -252 -588 -296 -78 -13 -99 -13
-170 0 -202 37 -265 59 -382 137 -71 47 -149 126 -175 177 -8 14 -16 28 -19
31 -33 32 -57 196 -41 290 43 262 311 464 661 499 116 11 936 11 968 0z"/>
<path d="M33334 12319 c-61 -23 -132 -82 -150 -124 -10 -24 -13 -344 -15
-1595 -1 -861 2 -1582 6 -1603 9 -45 53 -93 110 -118 49 -23 142 -25 190 -4
47 19 145 94 237 180 41 39 104 95 139 125 35 30 93 82 129 115 85 80 143 132
211 191 48 42 208 184 379 337 25 23 72 66 105 96 33 31 89 81 125 111 35 30
105 93 154 138 50 46 115 105 146 130 87 74 138 132 170 196 42 83 42 172 0
260 -37 79 -176 215 -481 471 -46 39 -106 91 -134 116 -27 25 -62 54 -77 66
-38 28 -151 127 -228 198 -36 34 -92 83 -125 110 -71 59 -111 94 -180 155 -27
25 -77 68 -110 95 -33 28 -105 91 -160 140 -176 159 -293 235 -360 234 -16 0
-53 -9 -81 -20z"/>
</g>
</svg>
